<?xml version="1.0" encoding="utf-8" standalone="no"?>
<!DOCTYPE svg PUBLIC "-//W3C//DTD SVG 1.1//EN"
  "http://www.w3.org/Graphics/SVG/1.1/DTD/svg11.dtd">
<!-- Created with matplotlib (https://matplotlib.org/) -->
<svg height="288pt" version="1.1" viewBox="0 0 1080 288" width="1080pt" xmlns="http://www.w3.org/2000/svg" xmlns:xlink="http://www.w3.org/1999/xlink">
 <metadata>
  <rdf:RDF xmlns:cc="http://creativecommons.org/ns#" xmlns:dc="http://purl.org/dc/elements/1.1/" xmlns:rdf="http://www.w3.org/1999/02/22-rdf-syntax-ns#">
   <cc:Work>
    <dc:type rdf:resource="http://purl.org/dc/dcmitype/StillImage"/>
    <dc:date>2021-01-19T13:25:08.164551</dc:date>
    <dc:format>image/svg+xml</dc:format>
    <dc:creator>
     <cc:Agent>
      <dc:title>Matplotlib v3.3.2, https://matplotlib.org/</dc:title>
     </cc:Agent>
    </dc:creator>
   </cc:Work>
  </rdf:RDF>
 </metadata>
 <defs>
  <style type="text/css">*{stroke-linecap:butt;stroke-linejoin:round;}</style>
 </defs>
 <g id="figure_1">
  <g id="patch_1">
   <path d="M 0 288 
L 1080 288 
L 1080 0 
L 0 0 
z
" style="fill:#ffffff;"/>
  </g>
  <g id="axes_1">
   <g id="patch_2">
    <path d="M 31.39 259.4 
L 1067.04 259.4 
L 1067.04 39.6 
L 31.39 39.6 
z
" style="fill:#eaeaf2;"/>
   </g>
   <g id="matplotlib.axis_1">
    <g id="xtick_1">
     <g id="text_1">
      <!-- raisedhands -->
      <g style="fill:#262626;" transform="translate(133.607188 273.557813)scale(0.1 -0.1)">
       <defs>
        <path d="M 6.5 0 
L 6.5 51.859375 
L 14.40625 51.859375 
L 14.40625 44 
Q 17.4375 49.515625 20 51.265625 
Q 22.5625 53.03125 25.640625 53.03125 
Q 30.078125 53.03125 34.671875 50.203125 
L 31.640625 42.046875 
Q 28.421875 43.953125 25.203125 43.953125 
Q 22.3125 43.953125 20.015625 42.21875 
Q 17.71875 40.484375 16.75 37.40625 
Q 15.28125 32.71875 15.28125 27.15625 
L 15.28125 0 
z
" id="ArialMT-114"/>
        <path d="M 40.4375 6.390625 
Q 35.546875 2.25 31.03125 0.53125 
Q 26.515625 -1.171875 21.34375 -1.171875 
Q 12.796875 -1.171875 8.203125 3 
Q 3.609375 7.171875 3.609375 13.671875 
Q 3.609375 17.484375 5.34375 20.625 
Q 7.078125 23.78125 9.890625 25.6875 
Q 12.703125 27.59375 16.21875 28.5625 
Q 18.796875 29.25 24.03125 29.890625 
Q 34.671875 31.15625 39.703125 32.90625 
Q 39.75 34.71875 39.75 35.203125 
Q 39.75 40.578125 37.25 42.78125 
Q 33.890625 45.75 27.25 45.75 
Q 21.046875 45.75 18.09375 43.578125 
Q 15.140625 41.40625 13.71875 35.890625 
L 5.125 37.0625 
Q 6.296875 42.578125 8.984375 45.96875 
Q 11.671875 49.359375 16.75 51.1875 
Q 21.828125 53.03125 28.515625 53.03125 
Q 35.15625 53.03125 39.296875 51.46875 
Q 43.453125 49.90625 45.40625 47.53125 
Q 47.359375 45.171875 48.140625 41.546875 
Q 48.578125 39.3125 48.578125 33.453125 
L 48.578125 21.734375 
Q 48.578125 9.46875 49.140625 6.21875 
Q 49.703125 2.984375 51.375 0 
L 42.1875 0 
Q 40.828125 2.734375 40.4375 6.390625 
z
M 39.703125 26.03125 
Q 34.90625 24.078125 25.34375 22.703125 
Q 19.921875 21.921875 17.671875 20.9375 
Q 15.4375 19.96875 14.203125 18.09375 
Q 12.984375 16.21875 12.984375 13.921875 
Q 12.984375 10.40625 15.640625 8.0625 
Q 18.3125 5.71875 23.4375 5.71875 
Q 28.515625 5.71875 32.46875 7.9375 
Q 36.421875 10.15625 38.28125 14.015625 
Q 39.703125 17 39.703125 22.796875 
z
" id="ArialMT-97"/>
        <path d="M 6.640625 61.46875 
L 6.640625 71.578125 
L 15.4375 71.578125 
L 15.4375 61.46875 
z
M 6.640625 0 
L 6.640625 51.859375 
L 15.4375 51.859375 
L 15.4375 0 
z
" id="ArialMT-105"/>
        <path d="M 3.078125 15.484375 
L 11.765625 16.84375 
Q 12.5 11.625 15.84375 8.84375 
Q 19.1875 6.0625 25.203125 6.0625 
Q 31.25 6.0625 34.171875 8.515625 
Q 37.109375 10.984375 37.109375 14.3125 
Q 37.109375 17.28125 34.515625 19 
Q 32.71875 20.171875 25.53125 21.96875 
Q 15.875 24.421875 12.140625 26.203125 
Q 8.40625 27.984375 6.46875 31.125 
Q 4.546875 34.28125 4.546875 38.09375 
Q 4.546875 41.546875 6.125 44.5 
Q 7.71875 47.46875 10.453125 49.421875 
Q 12.5 50.921875 16.03125 51.96875 
Q 19.578125 53.03125 23.640625 53.03125 
Q 29.734375 53.03125 34.34375 51.265625 
Q 38.96875 49.515625 41.15625 46.5 
Q 43.359375 43.5 44.1875 38.484375 
L 35.59375 37.3125 
Q 35.015625 41.3125 32.203125 43.546875 
Q 29.390625 45.796875 24.265625 45.796875 
Q 18.21875 45.796875 15.625 43.796875 
Q 13.03125 41.796875 13.03125 39.109375 
Q 13.03125 37.40625 14.109375 36.03125 
Q 15.1875 34.625 17.484375 33.6875 
Q 18.796875 33.203125 25.25 31.453125 
Q 34.578125 28.953125 38.25 27.359375 
Q 41.9375 25.78125 44.03125 22.75 
Q 46.140625 19.734375 46.140625 15.234375 
Q 46.140625 10.84375 43.578125 6.953125 
Q 41.015625 3.078125 36.171875 0.953125 
Q 31.34375 -1.171875 25.25 -1.171875 
Q 15.140625 -1.171875 9.84375 3.03125 
Q 4.546875 7.234375 3.078125 15.484375 
z
" id="ArialMT-115"/>
        <path d="M 42.09375 16.703125 
L 51.171875 15.578125 
Q 49.03125 7.625 43.21875 3.21875 
Q 37.40625 -1.171875 28.375 -1.171875 
Q 17 -1.171875 10.328125 5.828125 
Q 3.65625 12.84375 3.65625 25.484375 
Q 3.65625 38.578125 10.390625 45.796875 
Q 17.140625 53.03125 27.875 53.03125 
Q 38.28125 53.03125 44.875 45.953125 
Q 51.46875 38.875 51.46875 26.03125 
Q 51.46875 25.25 51.421875 23.6875 
L 12.75 23.6875 
Q 13.234375 15.140625 17.578125 10.59375 
Q 21.921875 6.0625 28.421875 6.0625 
Q 33.25 6.0625 36.671875 8.59375 
Q 40.09375 11.140625 42.09375 16.703125 
z
M 13.234375 30.90625 
L 42.1875 30.90625 
Q 41.609375 37.453125 38.875 40.71875 
Q 34.671875 45.796875 27.984375 45.796875 
Q 21.921875 45.796875 17.796875 41.75 
Q 13.671875 37.703125 13.234375 30.90625 
z
" id="ArialMT-101"/>
        <path d="M 40.234375 0 
L 40.234375 6.546875 
Q 35.296875 -1.171875 25.734375 -1.171875 
Q 19.53125 -1.171875 14.328125 2.25 
Q 9.125 5.671875 6.265625 11.796875 
Q 3.421875 17.921875 3.421875 25.875 
Q 3.421875 33.640625 6 39.96875 
Q 8.59375 46.296875 13.765625 49.65625 
Q 18.953125 53.03125 25.34375 53.03125 
Q 30.03125 53.03125 33.6875 51.046875 
Q 37.359375 49.078125 39.65625 45.90625 
L 39.65625 71.578125 
L 48.390625 71.578125 
L 48.390625 0 
z
M 12.453125 25.875 
Q 12.453125 15.921875 16.640625 10.984375 
Q 20.84375 6.0625 26.5625 6.0625 
Q 32.328125 6.0625 36.34375 10.765625 
Q 40.375 15.484375 40.375 25.140625 
Q 40.375 35.796875 36.265625 40.765625 
Q 32.171875 45.75 26.171875 45.75 
Q 20.3125 45.75 16.375 40.96875 
Q 12.453125 36.1875 12.453125 25.875 
z
" id="ArialMT-100"/>
        <path d="M 6.59375 0 
L 6.59375 71.578125 
L 15.375 71.578125 
L 15.375 45.90625 
Q 21.53125 53.03125 30.90625 53.03125 
Q 36.671875 53.03125 40.921875 50.75 
Q 45.171875 48.484375 47 44.484375 
Q 48.828125 40.484375 48.828125 32.859375 
L 48.828125 0 
L 40.046875 0 
L 40.046875 32.859375 
Q 40.046875 39.453125 37.1875 42.453125 
Q 34.328125 45.453125 29.109375 45.453125 
Q 25.203125 45.453125 21.75 43.421875 
Q 18.3125 41.40625 16.84375 37.9375 
Q 15.375 34.46875 15.375 28.375 
L 15.375 0 
z
" id="ArialMT-104"/>
        <path d="M 6.59375 0 
L 6.59375 51.859375 
L 14.5 51.859375 
L 14.5 44.484375 
Q 20.21875 53.03125 31 53.03125 
Q 35.6875 53.03125 39.625 51.34375 
Q 43.5625 49.65625 45.515625 46.921875 
Q 47.46875 44.1875 48.25 40.4375 
Q 48.734375 37.984375 48.734375 31.890625 
L 48.734375 0 
L 39.9375 0 
L 39.9375 31.546875 
Q 39.9375 36.921875 38.90625 39.578125 
Q 37.890625 42.234375 35.28125 43.8125 
Q 32.671875 45.40625 29.15625 45.40625 
Q 23.53125 45.40625 19.453125 41.84375 
Q 15.375 38.28125 15.375 28.328125 
L 15.375 0 
z
" id="ArialMT-110"/>
       </defs>
       <use xlink:href="#ArialMT-114"/>
       <use x="33.300781" xlink:href="#ArialMT-97"/>
       <use x="88.916016" xlink:href="#ArialMT-105"/>
       <use x="111.132812" xlink:href="#ArialMT-115"/>
       <use x="161.132812" xlink:href="#ArialMT-101"/>
       <use x="216.748047" xlink:href="#ArialMT-100"/>
       <use x="272.363281" xlink:href="#ArialMT-104"/>
       <use x="327.978516" xlink:href="#ArialMT-97"/>
       <use x="383.59375" xlink:href="#ArialMT-110"/>
       <use x="439.208984" xlink:href="#ArialMT-100"/>
       <use x="494.824219" xlink:href="#ArialMT-115"/>
      </g>
     </g>
    </g>
    <g id="xtick_2">
     <g id="text_2">
      <!-- VisITedResources -->
      <g style="fill:#262626;" transform="translate(379.554844 273.557813)scale(0.1 -0.1)">
       <defs>
        <path d="M 28.171875 0 
L 0.4375 71.578125 
L 10.6875 71.578125 
L 29.296875 19.578125 
Q 31.546875 13.328125 33.0625 7.859375 
Q 34.71875 13.71875 36.921875 19.578125 
L 56.25 71.578125 
L 65.921875 71.578125 
L 37.890625 0 
z
" id="ArialMT-86"/>
        <path d="M 9.328125 0 
L 9.328125 71.578125 
L 18.796875 71.578125 
L 18.796875 0 
z
" id="ArialMT-73"/>
        <path d="M 25.921875 0 
L 25.921875 63.140625 
L 2.34375 63.140625 
L 2.34375 71.578125 
L 59.078125 71.578125 
L 59.078125 63.140625 
L 35.40625 63.140625 
L 35.40625 0 
z
" id="ArialMT-84"/>
        <path d="M 7.859375 0 
L 7.859375 71.578125 
L 39.59375 71.578125 
Q 49.171875 71.578125 54.140625 69.640625 
Q 59.125 67.71875 62.109375 62.828125 
Q 65.09375 57.953125 65.09375 52.046875 
Q 65.09375 44.4375 60.15625 39.203125 
Q 55.21875 33.984375 44.921875 32.5625 
Q 48.6875 30.765625 50.640625 29 
Q 54.78125 25.203125 58.5 19.484375 
L 70.953125 0 
L 59.03125 0 
L 49.5625 14.890625 
Q 45.40625 21.34375 42.71875 24.75 
Q 40.046875 28.171875 37.921875 29.53125 
Q 35.796875 30.90625 33.59375 31.453125 
Q 31.984375 31.78125 28.328125 31.78125 
L 17.328125 31.78125 
L 17.328125 0 
z
M 17.328125 39.984375 
L 37.703125 39.984375 
Q 44.1875 39.984375 47.84375 41.328125 
Q 51.515625 42.671875 53.421875 45.625 
Q 55.328125 48.578125 55.328125 52.046875 
Q 55.328125 57.125 51.640625 60.390625 
Q 47.953125 63.671875 39.984375 63.671875 
L 17.328125 63.671875 
z
" id="ArialMT-82"/>
        <path d="M 3.328125 25.921875 
Q 3.328125 40.328125 11.328125 47.265625 
Q 18.015625 53.03125 27.640625 53.03125 
Q 38.328125 53.03125 45.109375 46.015625 
Q 51.90625 39.015625 51.90625 26.65625 
Q 51.90625 16.65625 48.90625 10.90625 
Q 45.90625 5.171875 40.15625 2 
Q 34.421875 -1.171875 27.640625 -1.171875 
Q 16.75 -1.171875 10.03125 5.8125 
Q 3.328125 12.796875 3.328125 25.921875 
z
M 12.359375 25.921875 
Q 12.359375 15.96875 16.703125 11.015625 
Q 21.046875 6.0625 27.640625 6.0625 
Q 34.1875 6.0625 38.53125 11.03125 
Q 42.875 16.015625 42.875 26.21875 
Q 42.875 35.84375 38.5 40.796875 
Q 34.125 45.75 27.640625 45.75 
Q 21.046875 45.75 16.703125 40.8125 
Q 12.359375 35.890625 12.359375 25.921875 
z
" id="ArialMT-111"/>
        <path d="M 40.578125 0 
L 40.578125 7.625 
Q 34.515625 -1.171875 24.125 -1.171875 
Q 19.53125 -1.171875 15.546875 0.578125 
Q 11.578125 2.34375 9.640625 5 
Q 7.71875 7.671875 6.9375 11.53125 
Q 6.390625 14.109375 6.390625 19.734375 
L 6.390625 51.859375 
L 15.1875 51.859375 
L 15.1875 23.09375 
Q 15.1875 16.21875 15.71875 13.8125 
Q 16.546875 10.359375 19.234375 8.375 
Q 21.921875 6.390625 25.875 6.390625 
Q 29.828125 6.390625 33.296875 8.421875 
Q 36.765625 10.453125 38.203125 13.9375 
Q 39.65625 17.4375 39.65625 24.078125 
L 39.65625 51.859375 
L 48.4375 51.859375 
L 48.4375 0 
z
" id="ArialMT-117"/>
        <path d="M 40.4375 19 
L 49.078125 17.875 
Q 47.65625 8.9375 41.8125 3.875 
Q 35.984375 -1.171875 27.484375 -1.171875 
Q 16.84375 -1.171875 10.375 5.78125 
Q 3.90625 12.75 3.90625 25.734375 
Q 3.90625 34.125 6.6875 40.421875 
Q 9.46875 46.734375 15.15625 49.875 
Q 20.84375 53.03125 27.546875 53.03125 
Q 35.984375 53.03125 41.359375 48.75 
Q 46.734375 44.484375 48.25 36.625 
L 39.703125 35.296875 
Q 38.484375 40.53125 35.375 43.15625 
Q 32.28125 45.796875 27.875 45.796875 
Q 21.234375 45.796875 17.078125 41.03125 
Q 12.9375 36.28125 12.9375 25.984375 
Q 12.9375 15.53125 16.9375 10.796875 
Q 20.953125 6.0625 27.390625 6.0625 
Q 32.5625 6.0625 36.03125 9.234375 
Q 39.5 12.40625 40.4375 19 
z
" id="ArialMT-99"/>
       </defs>
       <use xlink:href="#ArialMT-86"/>
       <use x="64.949219" xlink:href="#ArialMT-105"/>
       <use x="87.166016" xlink:href="#ArialMT-115"/>
       <use x="137.166016" xlink:href="#ArialMT-73"/>
       <use x="164.949219" xlink:href="#ArialMT-84"/>
       <use x="214.908203" xlink:href="#ArialMT-101"/>
       <use x="270.523438" xlink:href="#ArialMT-100"/>
       <use x="326.138672" xlink:href="#ArialMT-82"/>
       <use x="398.355469" xlink:href="#ArialMT-101"/>
       <use x="453.970703" xlink:href="#ArialMT-115"/>
       <use x="503.970703" xlink:href="#ArialMT-111"/>
       <use x="559.585938" xlink:href="#ArialMT-117"/>
       <use x="615.201172" xlink:href="#ArialMT-114"/>
       <use x="648.501953" xlink:href="#ArialMT-99"/>
       <use x="698.501953" xlink:href="#ArialMT-101"/>
       <use x="754.117188" xlink:href="#ArialMT-115"/>
      </g>
     </g>
    </g>
    <g id="xtick_3">
     <g id="text_3">
      <!-- AnnouncementsView -->
      <g style="fill:#262626;" transform="translate(631.788437 273.557813)scale(0.1 -0.1)">
       <defs>
        <path d="M -0.140625 0 
L 27.34375 71.578125 
L 37.546875 71.578125 
L 66.84375 0 
L 56.0625 0 
L 47.703125 21.6875 
L 17.78125 21.6875 
L 9.90625 0 
z
M 20.515625 29.390625 
L 44.78125 29.390625 
L 37.3125 49.21875 
Q 33.890625 58.25 32.234375 64.0625 
Q 30.859375 57.171875 28.375 50.390625 
z
" id="ArialMT-65"/>
        <path d="M 6.59375 0 
L 6.59375 51.859375 
L 14.453125 51.859375 
L 14.453125 44.578125 
Q 16.890625 48.390625 20.9375 50.703125 
Q 25 53.03125 30.171875 53.03125 
Q 35.9375 53.03125 39.625 50.640625 
Q 43.3125 48.25 44.828125 43.953125 
Q 50.984375 53.03125 60.84375 53.03125 
Q 68.5625 53.03125 72.703125 48.75 
Q 76.859375 44.484375 76.859375 35.59375 
L 76.859375 0 
L 68.109375 0 
L 68.109375 32.671875 
Q 68.109375 37.9375 67.25 40.25 
Q 66.40625 42.578125 64.15625 43.984375 
Q 61.921875 45.40625 58.890625 45.40625 
Q 53.421875 45.40625 49.796875 41.765625 
Q 46.1875 38.140625 46.1875 30.125 
L 46.1875 0 
L 37.40625 0 
L 37.40625 33.6875 
Q 37.40625 39.546875 35.25 42.46875 
Q 33.109375 45.40625 28.21875 45.40625 
Q 24.515625 45.40625 21.359375 43.453125 
Q 18.21875 41.5 16.796875 37.734375 
Q 15.375 33.984375 15.375 26.90625 
L 15.375 0 
z
" id="ArialMT-109"/>
        <path d="M 25.78125 7.859375 
L 27.046875 0.09375 
Q 23.34375 -0.6875 20.40625 -0.6875 
Q 15.625 -0.6875 12.984375 0.828125 
Q 10.359375 2.34375 9.28125 4.8125 
Q 8.203125 7.28125 8.203125 15.1875 
L 8.203125 45.015625 
L 1.765625 45.015625 
L 1.765625 51.859375 
L 8.203125 51.859375 
L 8.203125 64.703125 
L 16.9375 69.96875 
L 16.9375 51.859375 
L 25.78125 51.859375 
L 25.78125 45.015625 
L 16.9375 45.015625 
L 16.9375 14.703125 
Q 16.9375 10.9375 17.40625 9.859375 
Q 17.875 8.796875 18.921875 8.15625 
Q 19.96875 7.515625 21.921875 7.515625 
Q 23.390625 7.515625 25.78125 7.859375 
z
" id="ArialMT-116"/>
        <path d="M 16.15625 0 
L 0.296875 51.859375 
L 9.375 51.859375 
L 17.625 21.921875 
L 20.703125 10.796875 
Q 20.90625 11.625 23.390625 21.484375 
L 31.640625 51.859375 
L 40.671875 51.859375 
L 48.4375 21.78125 
L 51.03125 11.859375 
L 54 21.875 
L 62.890625 51.859375 
L 71.4375 51.859375 
L 55.21875 0 
L 46.09375 0 
L 37.84375 31.0625 
L 35.84375 39.890625 
L 25.34375 0 
z
" id="ArialMT-119"/>
       </defs>
       <use xlink:href="#ArialMT-65"/>
       <use x="66.699219" xlink:href="#ArialMT-110"/>
       <use x="122.314453" xlink:href="#ArialMT-110"/>
       <use x="177.929688" xlink:href="#ArialMT-111"/>
       <use x="233.544922" xlink:href="#ArialMT-117"/>
       <use x="289.160156" xlink:href="#ArialMT-110"/>
       <use x="344.775391" xlink:href="#ArialMT-99"/>
       <use x="394.775391" xlink:href="#ArialMT-101"/>
       <use x="450.390625" xlink:href="#ArialMT-109"/>
       <use x="533.691406" xlink:href="#ArialMT-101"/>
       <use x="589.306641" xlink:href="#ArialMT-110"/>
       <use x="644.921875" xlink:href="#ArialMT-116"/>
       <use x="672.705078" xlink:href="#ArialMT-115"/>
       <use x="722.705078" xlink:href="#ArialMT-86"/>
       <use x="787.654297" xlink:href="#ArialMT-105"/>
       <use x="809.871094" xlink:href="#ArialMT-101"/>
       <use x="865.486328" xlink:href="#ArialMT-119"/>
      </g>
     </g>
    </g>
    <g id="xtick_4">
     <g id="text_4">
      <!-- Discussion -->
      <g style="fill:#262626;" transform="translate(913.409531 273.557813)scale(0.1 -0.1)">
       <defs>
        <path d="M 7.71875 0 
L 7.71875 71.578125 
L 32.375 71.578125 
Q 40.71875 71.578125 45.125 70.5625 
Q 51.265625 69.140625 55.609375 65.4375 
Q 61.28125 60.640625 64.078125 53.1875 
Q 66.890625 45.75 66.890625 36.1875 
Q 66.890625 28.03125 64.984375 21.734375 
Q 63.09375 15.4375 60.109375 11.296875 
Q 57.125 7.171875 53.578125 4.796875 
Q 50.046875 2.4375 45.046875 1.21875 
Q 40.046875 0 33.546875 0 
z
M 17.1875 8.453125 
L 32.46875 8.453125 
Q 39.546875 8.453125 43.578125 9.765625 
Q 47.609375 11.078125 50 13.484375 
Q 53.375 16.84375 55.25 22.53125 
Q 57.125 28.21875 57.125 36.328125 
Q 57.125 47.5625 53.4375 53.59375 
Q 49.75 59.625 44.484375 61.671875 
Q 40.671875 63.140625 32.234375 63.140625 
L 17.1875 63.140625 
z
" id="ArialMT-68"/>
       </defs>
       <use xlink:href="#ArialMT-68"/>
       <use x="72.216797" xlink:href="#ArialMT-105"/>
       <use x="94.433594" xlink:href="#ArialMT-115"/>
       <use x="144.433594" xlink:href="#ArialMT-99"/>
       <use x="194.433594" xlink:href="#ArialMT-117"/>
       <use x="250.048828" xlink:href="#ArialMT-115"/>
       <use x="300.048828" xlink:href="#ArialMT-115"/>
       <use x="350.048828" xlink:href="#ArialMT-105"/>
       <use x="372.265625" xlink:href="#ArialMT-111"/>
       <use x="427.880859" xlink:href="#ArialMT-110"/>
      </g>
     </g>
    </g>
   </g>
   <g id="matplotlib.axis_2">
    <g id="ytick_1">
     <g id="line2d_1">
      <path clip-path="url(#pc959c38c65)" d="M 31.39 240.030354 
L 1067.04 240.030354 
" style="fill:none;stroke:#ffffff;stroke-linecap:round;"/>
     </g>
     <g id="text_5">
      <!-- −2 -->
      <g style="fill:#262626;" transform="translate(12.988438 243.60926)scale(0.1 -0.1)">
       <defs>
        <path d="M 52.828125 31.203125 
L 5.5625 31.203125 
L 5.5625 39.40625 
L 52.828125 39.40625 
z
" id="ArialMT-8722"/>
        <path d="M 50.34375 8.453125 
L 50.34375 0 
L 3.03125 0 
Q 2.9375 3.171875 4.046875 6.109375 
Q 5.859375 10.9375 9.828125 15.625 
Q 13.8125 20.3125 21.34375 26.46875 
Q 33.015625 36.03125 37.109375 41.625 
Q 41.21875 47.21875 41.21875 52.203125 
Q 41.21875 57.421875 37.46875 61 
Q 33.734375 64.59375 27.734375 64.59375 
Q 21.390625 64.59375 17.578125 60.78125 
Q 13.765625 56.984375 13.71875 50.25 
L 4.6875 51.171875 
Q 5.609375 61.28125 11.65625 66.578125 
Q 17.71875 71.875 27.9375 71.875 
Q 38.234375 71.875 44.234375 66.15625 
Q 50.25 60.453125 50.25 52 
Q 50.25 47.703125 48.484375 43.546875 
Q 46.734375 39.40625 42.65625 34.8125 
Q 38.578125 30.21875 29.109375 22.21875 
Q 21.1875 15.578125 18.9375 13.203125 
Q 16.703125 10.84375 15.234375 8.453125 
z
" id="ArialMT-50"/>
       </defs>
       <use xlink:href="#ArialMT-8722"/>
       <use x="58.398438" xlink:href="#ArialMT-50"/>
      </g>
     </g>
    </g>
    <g id="ytick_2">
     <g id="line2d_2">
      <path clip-path="url(#pc959c38c65)" d="M 31.39 200.679703 
L 1067.04 200.679703 
" style="fill:none;stroke:#ffffff;stroke-linecap:round;"/>
     </g>
     <g id="text_6">
      <!-- −1 -->
      <g style="fill:#262626;" transform="translate(12.988438 204.258609)scale(0.1 -0.1)">
       <defs>
        <path d="M 37.25 0 
L 28.46875 0 
L 28.46875 56 
Q 25.296875 52.984375 20.140625 49.953125 
Q 14.984375 46.921875 10.890625 45.40625 
L 10.890625 53.90625 
Q 18.265625 57.375 23.78125 62.296875 
Q 29.296875 67.234375 31.59375 71.875 
L 37.25 71.875 
z
" id="ArialMT-49"/>
       </defs>
       <use xlink:href="#ArialMT-8722"/>
       <use x="58.398438" xlink:href="#ArialMT-49"/>
      </g>
     </g>
    </g>
    <g id="ytick_3">
     <g id="line2d_3">
      <path clip-path="url(#pc959c38c65)" d="M 31.39 161.329051 
L 1067.04 161.329051 
" style="fill:none;stroke:#ffffff;stroke-linecap:round;"/>
     </g>
     <g id="text_7">
      <!-- 0 -->
      <g style="fill:#262626;" transform="translate(18.829063 164.907957)scale(0.1 -0.1)">
       <defs>
        <path d="M 4.15625 35.296875 
Q 4.15625 48 6.765625 55.734375 
Q 9.375 63.484375 14.515625 67.671875 
Q 19.671875 71.875 27.484375 71.875 
Q 33.25 71.875 37.59375 69.546875 
Q 41.9375 67.234375 44.765625 62.859375 
Q 47.609375 58.5 49.21875 52.21875 
Q 50.828125 45.953125 50.828125 35.296875 
Q 50.828125 22.703125 48.234375 14.96875 
Q 45.65625 7.234375 40.5 3 
Q 35.359375 -1.21875 27.484375 -1.21875 
Q 17.140625 -1.21875 11.234375 6.203125 
Q 4.15625 15.140625 4.15625 35.296875 
z
M 13.1875 35.296875 
Q 13.1875 17.671875 17.3125 11.828125 
Q 21.4375 6 27.484375 6 
Q 33.546875 6 37.671875 11.859375 
Q 41.796875 17.71875 41.796875 35.296875 
Q 41.796875 52.984375 37.671875 58.78125 
Q 33.546875 64.59375 27.390625 64.59375 
Q 21.34375 64.59375 17.71875 59.46875 
Q 13.1875 52.9375 13.1875 35.296875 
z
" id="ArialMT-48"/>
       </defs>
       <use xlink:href="#ArialMT-48"/>
      </g>
     </g>
    </g>
    <g id="ytick_4">
     <g id="line2d_4">
      <path clip-path="url(#pc959c38c65)" d="M 31.39 121.9784 
L 1067.04 121.9784 
" style="fill:none;stroke:#ffffff;stroke-linecap:round;"/>
     </g>
     <g id="text_8">
      <!-- 1 -->
      <g style="fill:#262626;" transform="translate(18.829063 125.557306)scale(0.1 -0.1)">
       <use xlink:href="#ArialMT-49"/>
      </g>
     </g>
    </g>
    <g id="ytick_5">
     <g id="line2d_5">
      <path clip-path="url(#pc959c38c65)" d="M 31.39 82.627748 
L 1067.04 82.627748 
" style="fill:none;stroke:#ffffff;stroke-linecap:round;"/>
     </g>
     <g id="text_9">
      <!-- 2 -->
      <g style="fill:#262626;" transform="translate(18.829063 86.206655)scale(0.1 -0.1)">
       <use xlink:href="#ArialMT-50"/>
      </g>
     </g>
    </g>
    <g id="ytick_6">
     <g id="line2d_6">
      <path clip-path="url(#pc959c38c65)" d="M 31.39 43.277097 
L 1067.04 43.277097 
" style="fill:none;stroke:#ffffff;stroke-linecap:round;"/>
     </g>
     <g id="text_10">
      <!-- 3 -->
      <g style="fill:#262626;" transform="translate(18.829063 46.856003)scale(0.1 -0.1)">
       <defs>
        <path d="M 4.203125 18.890625 
L 12.984375 20.0625 
Q 14.5 12.59375 18.140625 9.296875 
Q 21.78125 6 27 6 
Q 33.203125 6 37.46875 10.296875 
Q 41.75 14.59375 41.75 20.953125 
Q 41.75 27 37.796875 30.921875 
Q 33.84375 34.859375 27.734375 34.859375 
Q 25.25 34.859375 21.53125 33.890625 
L 22.515625 41.609375 
Q 23.390625 41.5 23.921875 41.5 
Q 29.546875 41.5 34.03125 44.421875 
Q 38.53125 47.359375 38.53125 53.46875 
Q 38.53125 58.296875 35.25 61.46875 
Q 31.984375 64.65625 26.8125 64.65625 
Q 21.6875 64.65625 18.265625 61.421875 
Q 14.84375 58.203125 13.875 51.765625 
L 5.078125 53.328125 
Q 6.6875 62.15625 12.390625 67.015625 
Q 18.109375 71.875 26.609375 71.875 
Q 32.46875 71.875 37.390625 69.359375 
Q 42.328125 66.84375 44.9375 62.5 
Q 47.5625 58.15625 47.5625 53.265625 
Q 47.5625 48.640625 45.0625 44.828125 
Q 42.578125 41.015625 37.703125 38.765625 
Q 44.046875 37.3125 47.5625 32.6875 
Q 51.078125 28.078125 51.078125 21.140625 
Q 51.078125 11.765625 44.234375 5.25 
Q 37.40625 -1.265625 26.953125 -1.265625 
Q 17.53125 -1.265625 11.296875 4.34375 
Q 5.078125 9.96875 4.203125 18.890625 
z
" id="ArialMT-51"/>
       </defs>
       <use xlink:href="#ArialMT-51"/>
      </g>
     </g>
    </g>
   </g>
   <g id="PolyCollection_1">
    <defs>
     <path d="M 163.328124 -43.975368 
L 158.364376 -43.975368 
L 157.327127 -45.72928 
L 155.952419 -47.483193 
L 154.169599 -49.237106 
L 151.906936 -50.991019 
L 149.096456 -52.744931 
L 145.679758 -54.498844 
L 141.61447 -56.252757 
L 136.880818 -58.00667 
L 131.487657 -59.760583 
L 125.477283 -61.514495 
L 118.92833 -63.268408 
L 111.956154 -65.022321 
L 104.710312 -66.776234 
L 97.368976 -68.530146 
L 90.130477 -70.284059 
L 83.202462 -72.037972 
L 76.789539 -73.791885 
L 71.080472 -75.545798 
L 66.236178 -77.29971 
L 62.379739 -79.053623 
L 59.589452 -80.807536 
L 57.895612 -82.561449 
L 57.28125 -84.315361 
L 57.686582 -86.069274 
L 59.016442 -87.823187 
L 61.149673 -89.5771 
L 63.949283 -91.331013 
L 67.272212 -93.084925 
L 70.977753 -94.838838 
L 74.934003 -96.592751 
L 79.022069 -98.346664 
L 83.138125 -100.100576 
L 87.193666 -101.854489 
L 91.11448 -103.608402 
L 94.838937 -105.362315 
L 98.316118 -107.116228 
L 101.504229 -108.87014 
L 104.369566 -110.624053 
L 106.88612 -112.377966 
L 109.035748 -114.131879 
L 110.808667 -115.885791 
L 112.203931 -117.639704 
L 113.229505 -119.393617 
L 113.901571 -121.14753 
L 114.242832 -122.901443 
L 114.27974 -124.655355 
L 114.038826 -126.409268 
L 113.542564 -128.163181 
L 112.805375 -129.917094 
L 111.830526 -131.671006 
L 110.608634 -133.424919 
L 109.118353 -135.178832 
L 107.329491 -136.932745 
L 105.208461 -138.686658 
L 102.725517 -140.44057 
L 99.86288 -142.194483 
L 96.622622 -143.948396 
L 93.033083 -145.702309 
L 89.152753 -147.456221 
L 85.070882 -149.210134 
L 80.904516 -150.964047 
L 76.792212 -152.71796 
L 72.885165 -154.471873 
L 69.336827 -156.225785 
L 66.292289 -157.979698 
L 63.878649 -159.733611 
L 62.197344 -161.487524 
L 61.319091 -163.241436 
L 61.281635 -164.995349 
L 62.090151 -166.749262 
L 63.719864 -168.503175 
L 66.120259 -170.257088 
L 69.220266 -172.011 
L 72.933822 -173.764913 
L 77.165333 -175.518826 
L 81.814689 -177.272739 
L 86.781599 -179.026651 
L 91.969095 -180.780564 
L 97.286153 -182.534477 
L 102.649431 -184.28839 
L 107.984185 -186.042303 
L 113.224494 -187.796215 
L 118.31297 -189.550128 
L 123.200166 -191.304041 
L 127.843907 -193.057954 
L 132.208728 -194.811866 
L 136.265573 -196.565779 
L 139.991781 -198.319692 
L 143.371344 -200.073605 
L 146.395297 -201.827518 
L 149.062091 -203.58143 
L 151.377748 -205.335343 
L 153.355668 -207.089256 
L 155.015995 -208.843169 
L 156.384535 -210.597081 
L 157.491323 -212.350994 
L 158.368957 -214.104907 
L 159.050886 -215.85882 
L 159.569819 -217.612733 
L 162.122681 -217.612733 
L 162.122681 -217.612733 
L 162.641614 -215.85882 
L 163.323543 -214.104907 
L 164.201177 -212.350994 
L 165.307965 -210.597081 
L 166.676505 -208.843169 
L 168.336832 -207.089256 
L 170.314752 -205.335343 
L 172.630409 -203.58143 
L 175.297203 -201.827518 
L 178.321156 -200.073605 
L 181.700719 -198.319692 
L 185.426927 -196.565779 
L 189.483772 -194.811866 
L 193.848593 -193.057954 
L 198.492334 -191.304041 
L 203.37953 -189.550128 
L 208.468006 -187.796215 
L 213.708315 -186.042303 
L 219.043069 -184.28839 
L 224.406347 -182.534477 
L 229.723405 -180.780564 
L 234.910901 -179.026651 
L 239.877811 -177.272739 
L 244.527167 -175.518826 
L 248.758678 -173.764913 
L 252.472234 -172.011 
L 255.572241 -170.257088 
L 257.972636 -168.503175 
L 259.602349 -166.749262 
L 260.410865 -164.995349 
L 260.373409 -163.241436 
L 259.495156 -161.487524 
L 257.813851 -159.733611 
L 255.400211 -157.979698 
L 252.355673 -156.225785 
L 248.807335 -154.471873 
L 244.900288 -152.71796 
L 240.787984 -150.964047 
L 236.621618 -149.210134 
L 232.539747 -147.456221 
L 228.659417 -145.702309 
L 225.069878 -143.948396 
L 221.82962 -142.194483 
L 218.966983 -140.44057 
L 216.484039 -138.686658 
L 214.363009 -136.932745 
L 212.574147 -135.178832 
L 211.083866 -133.424919 
L 209.861974 -131.671006 
L 208.887125 -129.917094 
L 208.149936 -128.163181 
L 207.653674 -126.409268 
L 207.41276 -124.655355 
L 207.449668 -122.901443 
L 207.790929 -121.14753 
L 208.462995 -119.393617 
L 209.488569 -117.639704 
L 210.883833 -115.885791 
L 212.656752 -114.131879 
L 214.80638 -112.377966 
L 217.322934 -110.624053 
L 220.188271 -108.87014 
L 223.376382 -107.116228 
L 226.853563 -105.362315 
L 230.57802 -103.608402 
L 234.498834 -101.854489 
L 238.554375 -100.100576 
L 242.670431 -98.346664 
L 246.758497 -96.592751 
L 250.714747 -94.838838 
L 254.420288 -93.084925 
L 257.743217 -91.331013 
L 260.542827 -89.5771 
L 262.676058 -87.823187 
L 264.005918 -86.069274 
L 264.41125 -84.315361 
L 263.796888 -82.561449 
L 262.103048 -80.807536 
L 259.312761 -79.053623 
L 255.456322 -77.29971 
L 250.612028 -75.545798 
L 244.902961 -73.791885 
L 238.490038 -72.037972 
L 231.562023 -70.284059 
L 224.323524 -68.530146 
L 216.982188 -66.776234 
L 209.736346 -65.022321 
L 202.76417 -63.268408 
L 196.215217 -61.514495 
L 190.204843 -59.760583 
L 184.811682 -58.00667 
L 180.07803 -56.252757 
L 176.012742 -54.498844 
L 172.596044 -52.744931 
L 169.785564 -50.991019 
L 167.522901 -49.237106 
L 165.740081 -47.483193 
L 164.365373 -45.72928 
L 163.328124 -43.975368 
z
" id="m30f28b89b8" style="stroke:#4c4c4c;stroke-width:3;"/>
    </defs>
    <g clip-path="url(#pc959c38c65)">
     <use style="fill:#5875a4;stroke:#4c4c4c;stroke-width:3;" x="0" xlink:href="#m30f28b89b8" y="288"/>
    </g>
   </g>
   <g id="PolyCollection_2">
    <defs>
     <path d="M 421.858677 -38.590909 
L 417.658823 -38.590909 
L 416.833926 -40.242987 
L 415.75811 -41.895065 
L 414.383877 -43.547142 
L 412.664683 -45.19922 
L 410.558593 -46.851298 
L 408.03253 -48.503376 
L 405.06681 -50.155454 
L 401.659516 -51.807531 
L 397.83024 -53.459609 
L 393.622655 -55.111687 
L 389.105464 -56.763765 
L 384.371389 -58.415842 
L 379.534057 -60.06792 
L 374.722858 -61.719998 
L 370.07611 -63.372076 
L 365.733068 -65.024154 
L 361.825472 -66.676231 
L 358.469409 -68.328309 
L 355.758239 -69.980387 
L 353.757229 -71.632465 
L 352.500322 -73.284543 
L 351.989274 -74.93662 
L 352.195103 -76.588698 
L 353.061583 -78.240776 
L 354.510341 -79.892854 
L 356.446972 -81.544931 
L 358.767599 -83.197009 
L 361.365274 -84.849087 
L 364.135752 -86.501165 
L 366.982265 -88.153243 
L 369.819082 -89.80532 
L 372.573758 -91.457398 
L 375.188132 -93.109476 
L 377.618212 -94.761554 
L 379.833163 -96.413631 
L 381.813662 -98.065709 
L 383.549899 -99.717787 
L 385.039453 -101.369865 
L 386.285286 -103.021943 
L 387.293996 -104.67402 
L 388.074421 -106.326098 
L 388.636622 -107.978176 
L 388.991206 -109.630254 
L 389.148894 -111.282332 
L 389.120243 -112.934409 
L 388.915386 -114.586487 
L 388.543713 -116.238565 
L 388.013419 -117.890643 
L 387.330907 -119.54272 
L 386.500054 -121.194798 
L 385.521422 -122.846876 
L 384.39148 -124.498954 
L 383.10197 -126.151032 
L 381.639526 -127.803109 
L 379.985684 -129.455187 
L 378.117408 -131.107265 
L 376.008237 -132.759343 
L 373.630145 -134.41142 
L 370.956123 -136.063498 
L 367.963455 -137.715576 
L 364.637519 -139.367654 
L 360.975884 -141.019732 
L 356.992343 -142.671809 
L 352.720477 -144.323887 
L 348.216292 -145.975965 
L 343.559523 -147.628043 
L 338.853268 -149.280121 
L 334.221762 -150.932198 
L 329.806258 -152.584276 
L 325.759176 -154.236354 
L 322.236855 -155.888432 
L 319.391343 -157.540509 
L 317.361821 -159.192587 
L 316.266233 -160.844665 
L 316.19375 -162.496743 
L 317.198614 -164.148821 
L 319.295848 -165.800898 
L 322.459197 -167.452976 
L 326.621516 -169.105054 
L 331.677653 -170.757132 
L 337.489696 -172.409209 
L 343.894237 -174.061287 
L 350.711162 -175.713365 
L 357.753306 -177.365443 
L 364.836237 -179.017521 
L 371.787434 -180.669598 
L 378.454172 -182.321676 
L 384.709576 -183.973754 
L 390.4565 -185.625832 
L 395.629104 -187.27791 
L 400.192237 -188.929987 
L 404.138913 -190.582065 
L 407.48632 -192.234143 
L 410.270889 -193.886221 
L 412.542946 -195.538298 
L 414.361441 -197.190376 
L 415.789158 -198.842454 
L 416.888677 -200.494532 
L 417.719248 -202.14661 
L 421.798252 -202.14661 
L 421.798252 -202.14661 
L 422.628823 -200.494532 
L 423.728342 -198.842454 
L 425.156059 -197.190376 
L 426.974554 -195.538298 
L 429.246611 -193.886221 
L 432.03118 -192.234143 
L 435.378587 -190.582065 
L 439.325263 -188.929987 
L 443.888396 -187.27791 
L 449.061 -185.625832 
L 454.807924 -183.973754 
L 461.063328 -182.321676 
L 467.730066 -180.669598 
L 474.681263 -179.017521 
L 481.764194 -177.365443 
L 488.806338 -175.713365 
L 495.623263 -174.061287 
L 502.027804 -172.409209 
L 507.839847 -170.757132 
L 512.895984 -169.105054 
L 517.058303 -167.452976 
L 520.221652 -165.800898 
L 522.318886 -164.148821 
L 523.32375 -162.496743 
L 523.251267 -160.844665 
L 522.155679 -159.192587 
L 520.126157 -157.540509 
L 517.280645 -155.888432 
L 513.758324 -154.236354 
L 509.711242 -152.584276 
L 505.295738 -150.932198 
L 500.664232 -149.280121 
L 495.957977 -147.628043 
L 491.301208 -145.975965 
L 486.797023 -144.323887 
L 482.525157 -142.671809 
L 478.541616 -141.019732 
L 474.879981 -139.367654 
L 471.554045 -137.715576 
L 468.561377 -136.063498 
L 465.887355 -134.41142 
L 463.509263 -132.759343 
L 461.400092 -131.107265 
L 459.531816 -129.455187 
L 457.877974 -127.803109 
L 456.41553 -126.151032 
L 455.12602 -124.498954 
L 453.996078 -122.846876 
L 453.017446 -121.194798 
L 452.186593 -119.54272 
L 451.504081 -117.890643 
L 450.973787 -116.238565 
L 450.602114 -114.586487 
L 450.397257 -112.934409 
L 450.368606 -111.282332 
L 450.526294 -109.630254 
L 450.880878 -107.978176 
L 451.443079 -106.326098 
L 452.223504 -104.67402 
L 453.232214 -103.021943 
L 454.478047 -101.369865 
L 455.967601 -99.717787 
L 457.703838 -98.065709 
L 459.684337 -96.413631 
L 461.899288 -94.761554 
L 464.329368 -93.109476 
L 466.943742 -91.457398 
L 469.698418 -89.80532 
L 472.535235 -88.153243 
L 475.381748 -86.501165 
L 478.152226 -84.849087 
L 480.749901 -83.197009 
L 483.070528 -81.544931 
L 485.007159 -79.892854 
L 486.455917 -78.240776 
L 487.322397 -76.588698 
L 487.528226 -74.93662 
L 487.017178 -73.284543 
L 485.760271 -71.632465 
L 483.759261 -69.980387 
L 481.048091 -68.328309 
L 477.692028 -66.676231 
L 473.784432 -65.024154 
L 469.44139 -63.372076 
L 464.794642 -61.719998 
L 459.983443 -60.06792 
L 455.146111 -58.415842 
L 450.412036 -56.763765 
L 445.894845 -55.111687 
L 441.68726 -53.459609 
L 437.857984 -51.807531 
L 434.45069 -50.155454 
L 431.48497 -48.503376 
L 428.958907 -46.851298 
L 426.852817 -45.19922 
L 425.133623 -43.547142 
L 423.75939 -41.895065 
L 422.683574 -40.242987 
L 421.858677 -38.590909 
z
" id="m373bf2ef4b" style="stroke:#4c4c4c;stroke-width:3;"/>
    </defs>
    <g clip-path="url(#pc959c38c65)">
     <use style="fill:#5f9e6e;stroke:#4c4c4c;stroke-width:3;" x="0" xlink:href="#m373bf2ef4b" y="288"/>
    </g>
   </g>
   <g id="PolyCollection_3">
    <defs>
     <path d="M 681.874903 -47.704999 
L 675.467597 -47.704999 
L 674.021252 -49.631303 
L 672.087635 -51.557607 
L 669.575246 -53.483911 
L 666.402394 -55.410215 
L 662.507499 -57.336519 
L 657.859481 -59.262823 
L 652.466688 -61.189127 
L 646.382783 -63.115431 
L 639.708314 -65.041735 
L 632.5873 -66.968039 
L 625.198971 -68.894343 
L 617.745595 -70.820647 
L 610.437992 -72.746951 
L 603.480621 -74.673255 
L 597.058068 -76.599559 
L 591.324335 -78.525862 
L 586.39575 -80.452166 
L 582.347646 -82.37847 
L 579.214448 -84.304774 
L 576.992474 -86.231078 
L 575.644635 -88.157382 
L 575.10625 -90.083686 
L 575.291338 -92.00999 
L 576.098906 -93.936294 
L 577.418916 -95.862598 
L 579.13775 -97.788902 
L 581.143093 -99.715206 
L 583.328217 -101.64151 
L 585.595653 -103.567814 
L 587.860198 -105.494118 
L 590.051165 -107.420422 
L 592.113742 -109.346726 
L 594.009331 -111.27303 
L 595.714861 -113.199334 
L 597.221171 -115.125638 
L 598.530705 -117.051942 
L 599.654859 -118.978246 
L 600.611339 -120.90455 
L 601.421814 -122.830853 
L 602.110119 -124.757157 
L 602.701114 -126.683461 
L 603.220271 -128.609765 
L 603.693936 -130.536069 
L 604.15011 -132.462373 
L 604.619437 -134.388677 
L 605.135919 -136.314981 
L 605.736825 -138.241285 
L 606.461293 -140.167589 
L 607.347398 -142.093893 
L 608.427829 -144.020197 
L 609.724763 -145.946501 
L 611.244878 -147.872805 
L 612.975543 -149.799109 
L 614.883106 -151.725413 
L 616.9138 -153.651717 
L 618.997298 -155.578021 
L 621.052467 -157.504325 
L 622.99454 -159.430629 
L 624.742781 -161.356933 
L 626.227753 -163.283237 
L 627.397471 -165.209541 
L 628.221963 -167.135845 
L 628.695958 -169.062148 
L 628.839648 -170.988452 
L 628.697622 -172.914756 
L 628.336193 -174.84106 
L 627.839423 -176.767364 
L 627.30417 -178.693668 
L 626.834445 -180.619972 
L 626.535312 -182.546276 
L 626.506519 -184.47258 
L 626.836051 -186.398884 
L 627.593901 -188.325188 
L 628.826501 -190.251492 
L 630.552433 -192.177796 
L 632.760101 -194.1041 
L 635.407948 -196.030404 
L 638.427539 -197.956708 
L 641.729365 -199.883012 
L 645.210757 -201.809316 
L 648.764867 -203.73562 
L 652.289485 -205.661924 
L 655.694505 -207.588228 
L 658.907149 -209.514532 
L 661.874559 -211.440836 
L 664.563807 -213.367139 
L 666.959884 -215.293443 
L 669.06238 -217.219747 
L 670.881687 -219.146051 
L 672.43539 -221.072355 
L 673.745276 -222.998659 
L 674.835143 -224.924963 
L 675.729367 -226.851267 
L 676.452048 -228.777571 
L 677.026508 -230.703875 
L 677.474974 -232.630179 
L 677.818292 -234.556483 
L 678.075653 -236.482787 
L 678.264326 -238.409091 
L 679.078174 -238.409091 
L 679.078174 -238.409091 
L 679.266847 -236.482787 
L 679.524208 -234.556483 
L 679.867526 -232.630179 
L 680.315992 -230.703875 
L 680.890452 -228.777571 
L 681.613133 -226.851267 
L 682.507357 -224.924963 
L 683.597224 -222.998659 
L 684.90711 -221.072355 
L 686.460813 -219.146051 
L 688.28012 -217.219747 
L 690.382616 -215.293443 
L 692.778693 -213.367139 
L 695.467941 -211.440836 
L 698.435351 -209.514532 
L 701.647995 -207.588228 
L 705.053015 -205.661924 
L 708.577633 -203.73562 
L 712.131743 -201.809316 
L 715.613135 -199.883012 
L 718.914961 -197.956708 
L 721.934552 -196.030404 
L 724.582399 -194.1041 
L 726.790067 -192.177796 
L 728.515999 -190.251492 
L 729.748599 -188.325188 
L 730.506449 -186.398884 
L 730.835981 -184.47258 
L 730.807188 -182.546276 
L 730.508055 -180.619972 
L 730.03833 -178.693668 
L 729.503077 -176.767364 
L 729.006307 -174.84106 
L 728.644878 -172.914756 
L 728.502852 -170.988452 
L 728.646542 -169.062148 
L 729.120537 -167.135845 
L 729.945029 -165.209541 
L 731.114747 -163.283237 
L 732.599719 -161.356933 
L 734.34796 -159.430629 
L 736.290033 -157.504325 
L 738.345202 -155.578021 
L 740.4287 -153.651717 
L 742.459394 -151.725413 
L 744.366957 -149.799109 
L 746.097622 -147.872805 
L 747.617737 -145.946501 
L 748.914671 -144.020197 
L 749.995102 -142.093893 
L 750.881207 -140.167589 
L 751.605675 -138.241285 
L 752.206581 -136.314981 
L 752.723063 -134.388677 
L 753.19239 -132.462373 
L 753.648564 -130.536069 
L 754.122229 -128.609765 
L 754.641386 -126.683461 
L 755.232381 -124.757157 
L 755.920686 -122.830853 
L 756.731161 -120.90455 
L 757.687641 -118.978246 
L 758.811795 -117.051942 
L 760.121329 -115.125638 
L 761.627639 -113.199334 
L 763.333169 -111.27303 
L 765.228758 -109.346726 
L 767.291335 -107.420422 
L 769.482302 -105.494118 
L 771.746847 -103.567814 
L 774.014283 -101.64151 
L 776.199407 -99.715206 
L 778.20475 -97.788902 
L 779.923584 -95.862598 
L 781.243594 -93.936294 
L 782.051162 -92.00999 
L 782.23625 -90.083686 
L 781.697865 -88.157382 
L 780.350026 -86.231078 
L 778.128052 -84.304774 
L 774.994854 -82.37847 
L 770.94675 -80.452166 
L 766.018165 -78.525862 
L 760.284432 -76.599559 
L 753.861879 -74.673255 
L 746.904508 -72.746951 
L 739.596905 -70.820647 
L 732.143529 -68.894343 
L 724.7552 -66.968039 
L 717.634186 -65.041735 
L 710.959717 -63.115431 
L 704.875812 -61.189127 
L 699.483019 -59.262823 
L 694.835001 -57.336519 
L 690.940106 -55.410215 
L 687.767254 -53.483911 
L 685.254865 -51.557607 
L 683.321248 -49.631303 
L 681.874903 -47.704999 
z
" id="m4dc9ae1676" style="stroke:#4c4c4c;stroke-width:3;"/>
    </defs>
    <g clip-path="url(#pc959c38c65)">
     <use style="fill:#b55d60;stroke:#4c4c4c;stroke-width:3;" x="0" xlink:href="#m4dc9ae1676" y="288"/>
    </g>
   </g>
   <g id="PolyCollection_4">
    <defs>
     <path d="M 939.289415 -43.573239 
L 935.878085 -43.573239 
L 935.084216 -45.445176 
L 934.000551 -47.317114 
L 932.556728 -49.189052 
L 930.678652 -51.060989 
L 928.293073 -52.932927 
L 925.333377 -54.804864 
L 921.746257 -56.676802 
L 917.498715 -58.54874 
L 912.584724 -60.420677 
L 907.03076 -62.292615 
L 900.899446 -64.164552 
L 894.290589 -66.03649 
L 887.339103 -67.908428 
L 880.209562 -69.780365 
L 873.087477 -71.652303 
L 866.16781 -73.52424 
L 859.641612 -75.396178 
L 853.682085 -77.268115 
L 848.431525 -79.140053 
L 843.990706 -81.011991 
L 840.412008 -82.883928 
L 837.697216 -84.755866 
L 835.800288 -86.627803 
L 834.634764 -88.499741 
L 834.084848 -90.371679 
L 834.01875 -92.243616 
L 834.302635 -94.115554 
L 834.813537 -95.987491 
L 835.449842 -97.859429 
L 836.138361 -99.731367 
L 836.837503 -101.603304 
L 837.536595 -103.475242 
L 838.251857 -105.347179 
L 839.019862 -107.219117 
L 839.889542 -109.091055 
L 840.913817 -110.962992 
L 842.141831 -112.83493 
L 843.612598 -114.706867 
L 845.350542 -116.578805 
L 847.363215 -118.450742 
L 849.641116 -120.32268 
L 852.159372 -122.194618 
L 854.880767 -124.066555 
L 857.759485 -125.938493 
L 860.744841 -127.81043 
L 863.784317 -129.682368 
L 866.825408 -131.554306 
L 869.816101 -133.426243 
L 872.704203 -135.298181 
L 875.436142 -137.170118 
L 877.956097 -139.042056 
L 880.206346 -140.913994 
L 882.129472 -142.785931 
L 883.672584 -144.657869 
L 884.793101 -146.529806 
L 885.465107 -148.401744 
L 885.684918 -150.273682 
L 885.474468 -152.145619 
L 884.88146 -154.017557 
L 883.975835 -155.889494 
L 882.842896 -157.761432 
L 881.574207 -159.633369 
L 880.257887 -161.505307 
L 878.970161 -163.377245 
L 877.769747 -165.249182 
L 876.69608 -167.12112 
L 875.771513 -168.993057 
L 875.006765 -170.864995 
L 874.408203 -172.736933 
L 873.985185 -174.60887 
L 873.755805 -176.480808 
L 873.749815 -178.352745 
L 874.008192 -180.224683 
L 874.579586 -182.096621 
L 875.514464 -183.968558 
L 876.858121 -185.840496 
L 878.64383 -187.712433 
L 880.887171 -189.584371 
L 883.58227 -191.456309 
L 886.700304 -193.328246 
L 890.190252 -195.200184 
L 893.981651 -197.072121 
L 897.988922 -198.944059 
L 902.116768 -200.815996 
L 906.266125 -202.687934 
L 910.340141 -204.559872 
L 914.249713 -206.431809 
L 917.918164 -208.303747 
L 921.284736 -210.175684 
L 924.306685 -212.047622 
L 926.959912 -213.91956 
L 929.238182 -215.791497 
L 931.151142 -217.663435 
L 932.721439 -219.535372 
L 933.981301 -221.40731 
L 934.968965 -223.279248 
L 935.725303 -225.151185 
L 936.290915 -227.023123 
L 936.703859 -228.89506 
L 938.463641 -228.89506 
L 938.463641 -228.89506 
L 938.876585 -227.023123 
L 939.442197 -225.151185 
L 940.198535 -223.279248 
L 941.186199 -221.40731 
L 942.446061 -219.535372 
L 944.016358 -217.663435 
L 945.929318 -215.791497 
L 948.207588 -213.91956 
L 950.860815 -212.047622 
L 953.882764 -210.175684 
L 957.249336 -208.303747 
L 960.917787 -206.431809 
L 964.827359 -204.559872 
L 968.901375 -202.687934 
L 973.050732 -200.815996 
L 977.178578 -198.944059 
L 981.185849 -197.072121 
L 984.977248 -195.200184 
L 988.467196 -193.328246 
L 991.58523 -191.456309 
L 994.280329 -189.584371 
L 996.52367 -187.712433 
L 998.309379 -185.840496 
L 999.653036 -183.968558 
L 1000.587914 -182.096621 
L 1001.159308 -180.224683 
L 1001.417685 -178.352745 
L 1001.411695 -176.480808 
L 1001.182315 -174.60887 
L 1000.759297 -172.736933 
L 1000.160735 -170.864995 
L 999.395987 -168.993057 
L 998.47142 -167.12112 
L 997.397753 -165.249182 
L 996.197339 -163.377245 
L 994.909613 -161.505307 
L 993.593293 -159.633369 
L 992.324604 -157.761432 
L 991.191665 -155.889494 
L 990.28604 -154.017557 
L 989.693032 -152.145619 
L 989.482582 -150.273682 
L 989.702393 -148.401744 
L 990.374399 -146.529806 
L 991.494916 -144.657869 
L 993.038028 -142.785931 
L 994.961154 -140.913994 
L 997.211403 -139.042056 
L 999.731358 -137.170118 
L 1002.463297 -135.298181 
L 1005.351399 -133.426243 
L 1008.342092 -131.554306 
L 1011.383183 -129.682368 
L 1014.422659 -127.81043 
L 1017.408015 -125.938493 
L 1020.286733 -124.066555 
L 1023.008128 -122.194618 
L 1025.526384 -120.32268 
L 1027.804285 -118.450742 
L 1029.816958 -116.578805 
L 1031.554902 -114.706867 
L 1033.025669 -112.83493 
L 1034.253683 -110.962992 
L 1035.277958 -109.091055 
L 1036.147638 -107.219117 
L 1036.915643 -105.347179 
L 1037.630905 -103.475242 
L 1038.329997 -101.603304 
L 1039.029139 -99.731367 
L 1039.717658 -97.859429 
L 1040.353963 -95.987491 
L 1040.864865 -94.115554 
L 1041.14875 -92.243616 
L 1041.082652 -90.371679 
L 1040.532736 -88.499741 
L 1039.367212 -86.627803 
L 1037.470284 -84.755866 
L 1034.755492 -82.883928 
L 1031.176794 -81.011991 
L 1026.735975 -79.140053 
L 1021.485415 -77.268115 
L 1015.525888 -75.396178 
L 1008.99969 -73.52424 
L 1002.080023 -71.652303 
L 994.957938 -69.780365 
L 987.828397 -67.908428 
L 980.876911 -66.03649 
L 974.268054 -64.164552 
L 968.13674 -62.292615 
L 962.582776 -60.420677 
L 957.668785 -58.54874 
L 953.421243 -56.676802 
L 949.834123 -54.804864 
L 946.874427 -52.932927 
L 944.488848 -51.060989 
L 942.610772 -49.189052 
L 941.166949 -47.317114 
L 940.083284 -45.445176 
L 939.289415 -43.573239 
z
" id="mfb1adcbec2" style="stroke:#4c4c4c;stroke-width:3;"/>
    </defs>
    <g clip-path="url(#pc959c38c65)">
     <use style="fill:#857aaa;stroke:#4c4c4c;stroke-width:3;" x="0" xlink:href="#mfb1adcbec2" y="288"/>
    </g>
   </g>
   <g id="line2d_7">
    <path clip-path="url(#pc959c38c65)" d="M 160.84625 221.13 
L 160.84625 93.2819 
" style="fill:none;stroke:#4c4c4c;stroke-linecap:round;stroke-width:3;"/>
   </g>
   <g id="line2d_8">
    <path clip-path="url(#pc959c38c65)" d="M 160.84625 200.993924 
L 160.84625 125.243925 
" style="fill:none;stroke:#4c4c4c;stroke-linecap:round;stroke-width:9;"/>
   </g>
   <g id="line2d_9">
    <path clip-path="url(#pc959c38c65)" d="M 419.75875 226.514459 
L 419.75875 108.748023 
" style="fill:none;stroke:#4c4c4c;stroke-linecap:round;stroke-width:3;"/>
   </g>
   <g id="line2d_10">
    <path clip-path="url(#pc959c38c65)" d="M 419.75875 202.723259 
L 419.75875 126.591422 
" style="fill:none;stroke:#4c4c4c;stroke-linecap:round;stroke-width:9;"/>
   </g>
   <g id="line2d_11">
    <path clip-path="url(#pc959c38c65)" d="M 678.67125 217.400368 
L 678.67125 72.485541 
" style="fill:none;stroke:#4c4c4c;stroke-linecap:round;stroke-width:3;"/>
   </g>
   <g id="line2d_12">
    <path clip-path="url(#pc959c38c65)" d="M 678.67125 196.69825 
L 678.67125 131.63445 
" style="fill:none;stroke:#4c4c4c;stroke-linecap:round;stroke-width:9;"/>
   </g>
   <g id="line2d_13">
    <path clip-path="url(#pc959c38c65)" d="M 937.58375 221.532129 
L 937.58375 81.999572 
" style="fill:none;stroke:#4c4c4c;stroke-linecap:round;stroke-width:3;"/>
   </g>
   <g id="line2d_14">
    <path clip-path="url(#pc959c38c65)" d="M 937.58375 194.479898 
L 937.58375 123.289818 
" style="fill:none;stroke:#4c4c4c;stroke-linecap:round;stroke-width:9;"/>
   </g>
   <g id="patch_3">
    <path d="M 31.39 259.4 
L 31.39 39.6 
" style="fill:none;"/>
   </g>
   <g id="patch_4">
    <path d="M 1067.04 259.4 
L 1067.04 39.6 
" style="fill:none;"/>
   </g>
   <g id="patch_5">
    <path d="M 31.39 259.4 
L 1067.04 259.4 
" style="fill:none;"/>
   </g>
   <g id="patch_6">
    <path d="M 31.39 39.6 
L 1067.04 39.6 
" style="fill:none;"/>
   </g>
   <g id="PathCollection_1">
    <defs>
     <path d="M 0 3 
C 0.795609 3 1.55874 2.683901 2.12132 2.12132 
C 2.683901 1.55874 3 0.795609 3 0 
C 3 -0.795609 2.683901 -1.55874 2.12132 -2.12132 
C 1.55874 -2.683901 0.795609 -3 0 -3 
C -0.795609 -3 -1.55874 -2.683901 -2.12132 -2.12132 
C -2.683901 -1.55874 -3 -0.795609 -3 0 
C -3 0.795609 -2.683901 1.55874 -2.12132 2.12132 
C -1.55874 2.683901 -0.795609 3 0 3 
z
" id="mf8018bc20f" style="stroke:#4c4c4c;stroke-width:0.3;"/>
    </defs>
    <g clip-path="url(#pc959c38c65)">
     <use style="fill:#ffffff;stroke:#4c4c4c;stroke-width:0.3;" x="160.84625" xlink:href="#mf8018bc20f" y="157.20595"/>
    </g>
   </g>
   <g id="PathCollection_2">
    <g clip-path="url(#pc959c38c65)">
     <use style="fill:#ffffff;stroke:#4c4c4c;stroke-width:0.3;" x="419.75875" xlink:href="#mf8018bc20f" y="149.193061"/>
    </g>
   </g>
   <g id="PathCollection_3">
    <g clip-path="url(#pc959c38c65)">
     <use style="fill:#ffffff;stroke:#4c4c4c;stroke-width:0.3;" x="678.67125" xlink:href="#mf8018bc20f" y="168.602519"/>
    </g>
   </g>
   <g id="PathCollection_4">
    <g clip-path="url(#pc959c38c65)">
     <use style="fill:#ffffff;stroke:#4c4c4c;stroke-width:0.3;" x="937.58375" xlink:href="#mf8018bc20f" y="167.427668"/>
    </g>
   </g>
  </g>
  <g id="text_11">
   <!-- Violin Plot of all Continuous Variables -->
   <g style="fill:#262626;" transform="translate(416.035547 16.496719)scale(0.15 -0.15)">
    <defs>
     <path d="M 6.390625 0 
L 6.390625 71.578125 
L 15.1875 71.578125 
L 15.1875 0 
z
" id="ArialMT-108"/>
     <path id="ArialMT-32"/>
     <path d="M 7.71875 0 
L 7.71875 71.578125 
L 34.71875 71.578125 
Q 41.84375 71.578125 45.609375 70.90625 
Q 50.875 70.015625 54.4375 67.546875 
Q 58.015625 65.09375 60.1875 60.640625 
Q 62.359375 56.203125 62.359375 50.875 
Q 62.359375 41.75 56.546875 35.421875 
Q 50.734375 29.109375 35.546875 29.109375 
L 17.1875 29.109375 
L 17.1875 0 
z
M 17.1875 37.546875 
L 35.6875 37.546875 
Q 44.875 37.546875 48.734375 40.96875 
Q 52.59375 44.390625 52.59375 50.59375 
Q 52.59375 55.078125 50.3125 58.265625 
Q 48.046875 61.46875 44.34375 62.5 
Q 41.9375 63.140625 35.5 63.140625 
L 17.1875 63.140625 
z
" id="ArialMT-80"/>
     <path d="M 8.6875 0 
L 8.6875 45.015625 
L 0.921875 45.015625 
L 0.921875 51.859375 
L 8.6875 51.859375 
L 8.6875 57.375 
Q 8.6875 62.59375 9.625 65.140625 
Q 10.890625 68.5625 14.078125 70.671875 
Q 17.28125 72.796875 23.046875 72.796875 
Q 26.765625 72.796875 31.25 71.921875 
L 29.9375 64.265625 
Q 27.203125 64.75 24.75 64.75 
Q 20.75 64.75 19.09375 63.03125 
Q 17.4375 61.328125 17.4375 56.640625 
L 17.4375 51.859375 
L 27.546875 51.859375 
L 27.546875 45.015625 
L 17.4375 45.015625 
L 17.4375 0 
z
" id="ArialMT-102"/>
     <path d="M 58.796875 25.09375 
L 68.265625 22.703125 
Q 65.28125 11.03125 57.546875 4.90625 
Q 49.8125 -1.21875 38.625 -1.21875 
Q 27.046875 -1.21875 19.796875 3.484375 
Q 12.546875 8.203125 8.765625 17.140625 
Q 4.984375 26.078125 4.984375 36.328125 
Q 4.984375 47.515625 9.25 55.828125 
Q 13.53125 64.15625 21.40625 68.46875 
Q 29.296875 72.796875 38.765625 72.796875 
Q 49.515625 72.796875 56.828125 67.328125 
Q 64.15625 61.859375 67.046875 51.953125 
L 57.71875 49.75 
Q 55.21875 57.5625 50.484375 61.125 
Q 45.75 64.703125 38.578125 64.703125 
Q 30.328125 64.703125 24.78125 60.734375 
Q 19.234375 56.78125 16.984375 50.109375 
Q 14.75 43.453125 14.75 36.375 
Q 14.75 27.25 17.40625 20.4375 
Q 20.0625 13.625 25.671875 10.25 
Q 31.296875 6.890625 37.84375 6.890625 
Q 45.796875 6.890625 51.3125 11.46875 
Q 56.84375 16.0625 58.796875 25.09375 
z
" id="ArialMT-67"/>
     <path d="M 14.703125 0 
L 6.546875 0 
L 6.546875 71.578125 
L 15.328125 71.578125 
L 15.328125 46.046875 
Q 20.90625 53.03125 29.546875 53.03125 
Q 34.328125 53.03125 38.59375 51.09375 
Q 42.875 49.171875 45.625 45.671875 
Q 48.390625 42.1875 49.953125 37.25 
Q 51.515625 32.328125 51.515625 26.703125 
Q 51.515625 13.375 44.921875 6.09375 
Q 38.328125 -1.171875 29.109375 -1.171875 
Q 19.921875 -1.171875 14.703125 6.5 
z
M 14.59375 26.3125 
Q 14.59375 17 17.140625 12.84375 
Q 21.296875 6.0625 28.375 6.0625 
Q 34.125 6.0625 38.328125 11.0625 
Q 42.53125 16.0625 42.53125 25.984375 
Q 42.53125 36.140625 38.5 40.96875 
Q 34.46875 45.796875 28.765625 45.796875 
Q 23 45.796875 18.796875 40.796875 
Q 14.59375 35.796875 14.59375 26.3125 
z
" id="ArialMT-98"/>
    </defs>
    <use xlink:href="#ArialMT-86"/>
    <use x="64.949219" xlink:href="#ArialMT-105"/>
    <use x="87.166016" xlink:href="#ArialMT-111"/>
    <use x="142.78125" xlink:href="#ArialMT-108"/>
    <use x="164.998047" xlink:href="#ArialMT-105"/>
    <use x="187.214844" xlink:href="#ArialMT-110"/>
    <use x="242.830078" xlink:href="#ArialMT-32"/>
    <use x="270.613281" xlink:href="#ArialMT-80"/>
    <use x="337.3125" xlink:href="#ArialMT-108"/>
    <use x="359.529297" xlink:href="#ArialMT-111"/>
    <use x="415.144531" xlink:href="#ArialMT-116"/>
    <use x="442.927734" xlink:href="#ArialMT-32"/>
    <use x="470.710938" xlink:href="#ArialMT-111"/>
    <use x="526.326172" xlink:href="#ArialMT-102"/>
    <use x="554.109375" xlink:href="#ArialMT-32"/>
    <use x="581.892578" xlink:href="#ArialMT-97"/>
    <use x="637.507812" xlink:href="#ArialMT-108"/>
    <use x="659.724609" xlink:href="#ArialMT-108"/>
    <use x="681.941406" xlink:href="#ArialMT-32"/>
    <use x="709.724609" xlink:href="#ArialMT-67"/>
    <use x="781.941406" xlink:href="#ArialMT-111"/>
    <use x="837.556641" xlink:href="#ArialMT-110"/>
    <use x="893.171875" xlink:href="#ArialMT-116"/>
    <use x="920.955078" xlink:href="#ArialMT-105"/>
    <use x="943.171875" xlink:href="#ArialMT-110"/>
    <use x="998.787109" xlink:href="#ArialMT-117"/>
    <use x="1054.402344" xlink:href="#ArialMT-111"/>
    <use x="1110.017578" xlink:href="#ArialMT-117"/>
    <use x="1165.632812" xlink:href="#ArialMT-115"/>
    <use x="1215.632812" xlink:href="#ArialMT-32"/>
    <use x="1243.416016" xlink:href="#ArialMT-86"/>
    <use x="1302.740234" xlink:href="#ArialMT-97"/>
    <use x="1358.355469" xlink:href="#ArialMT-114"/>
    <use x="1391.65625" xlink:href="#ArialMT-105"/>
    <use x="1413.873047" xlink:href="#ArialMT-97"/>
    <use x="1469.488281" xlink:href="#ArialMT-98"/>
    <use x="1525.103516" xlink:href="#ArialMT-108"/>
    <use x="1547.320312" xlink:href="#ArialMT-101"/>
    <use x="1602.935547" xlink:href="#ArialMT-115"/>
   </g>
  </g>
 </g>
 <defs>
  <clipPath id="pc959c38c65">
   <rect height="219.8" width="1035.65" x="31.39" y="39.6"/>
  </clipPath>
 </defs>
</svg>
